<svg xmlns="http://www.w3.org/2000/svg" xmlns:xlink="http://www.w3.org/1999/xlink" version="1.1" x="0px" y="0px" viewBox="0 0 100 125" style="enable-background:new 0 0 100 100;" xml:space="preserve"><path d="M31.7,36.9h12.1l4.6,8c0.3,0.5,0.9,0.9,1.5,0.9c0.6,0,1.2-0.3,1.5-0.9l4.6-8h12.1c7.9,0,14.3-6.4,14.3-14.3  c0-7.9-6.4-14.3-14.3-14.3H31.7c-7.9,0-14.3,6.4-14.3,14.3C17.4,30.5,23.8,36.9,31.7,36.9z M31.7,11.8h36.5c6,0,10.8,4.8,10.8,10.8  s-4.8,10.8-10.8,10.8H55.1c-0.6,0-1.2,0.3-1.5,0.9L50,40.5l-3.6-6.2c-0.3-0.5-0.9-0.9-1.5-0.9H31.7c-6,0-10.8-4.8-10.8-10.8  S25.8,11.8,31.7,11.8z"/><circle cx="36.6" cy="22.9" r="3.6"/><circle cx="50" cy="22.9" r="3.6"/><circle cx="63.4" cy="22.9" r="3.6"/><path d="M73.5,61.7l2.3-5.8c0.3,0.1,0.7,0.1,1,0.1c3.7,0,6.7-3,6.7-6.7s-3-6.7-6.7-6.7s-6.7,3-6.7,6.7  c0,2.1,1,4,2.5,5.2l-2,5c-5.9-4.2-13-6.7-20.7-6.7c-7.6,0-14.8,2.4-20.7,6.7l-2-5c1.5-1.2,2.5-3.1,2.5-5.2c0-3.7-3-6.7-6.7-6.7  s-6.7,3-6.7,6.7s3,6.7,6.7,6.7c0.3,0,0.7,0,1-0.1l2.3,5.8C20.4,67,16,74.5,14.4,83c-0.4,2.2,0.2,4.4,1.6,6.1  c1.4,1.7,3.5,2.6,5.7,2.6h56.7c2.2,0,4.3-1,5.7-2.6c1.4-1.7,2-3.9,1.6-6.1C84,74.5,79.6,67.1,73.5,61.7z M76.9,46  c1.8,0,3.2,1.4,3.2,3.2s-1.4,3.2-3.2,3.2c-1.8,0-3.2-1.4-3.2-3.2S75.1,46,76.9,46z M19.9,49.2c0-1.8,1.4-3.2,3.2-3.2  s3.2,1.4,3.2,3.2s-1.4,3.2-3.2,3.2S19.9,51,19.9,49.2z M81.3,86.8c-0.7,0.9-1.8,1.4-2.9,1.4H21.7c-1.1,0-2.2-0.5-2.9-1.4  c-0.7-0.9-1-2-0.8-3.2C20.8,67.8,34.3,56.3,50,56.3c15.7,0,29.2,11.5,32.1,27.4C82.3,84.8,82,86,81.3,86.8z"/><path d="M37.6,67.6c-3.2,0-5.7,2.6-5.7,5.7c0,3.2,2.6,5.7,5.7,5.7c3.2,0,5.7-2.6,5.7-5.7  C43.3,70.2,40.8,67.6,37.6,67.6z M37.6,75.6c-1.2,0-2.2-1-2.2-2.2c0-1.2,1-2.2,2.2-2.2c1.2,0,2.2,1,2.2,2.2  C39.8,74.6,38.8,75.6,37.6,75.6z"/><path d="M62.4,67.6c-3.2,0-5.7,2.6-5.7,5.7c0,3.2,2.6,5.7,5.7,5.7c3.2,0,5.7-2.6,5.7-5.7  C68.2,70.2,65.6,67.6,62.4,67.6z M62.4,75.6c-1.2,0-2.2-1-2.2-2.2c0-1.2,1-2.2,2.2-2.2c1.2,0,2.2,1,2.2,2.2  C64.6,74.6,63.6,75.6,62.4,75.6z"/></svg>